# xmcd
#
# Track frame offsets:
#	150
#	19105
#	33925
#	49340
#	63520
#	80030
#	99792
#	112527
#	132305
#	143492
#	153995
#	167887
#
# Disc length: 2505 seconds
#
# Revision: 5
# Processed by: cddbd v1.5.2PL0 Copyright (c) Steve Scherf et al.
# Submitted via: audiograbber 1.83.01
#
DISCID=9009c70c
DTITLE=K. D. Lang and The Reclines - Absolute Torch And Twang
DYEAR=1989
DGENRE=Country
TTITLE0=Luck In My Eyes
TTITLE1=Three Days
TTITLE2=Trail Of Broken Hearts
TTITLE3=Big Boned Gal
TTITLE4=Didn't I
TTITLE5=Wallflower Waltz
TTITLE6=Full Moon Full Of Love
TTITLE7=Pullin' Back The Reins
TTITLE8=Big Big Love
TTITLE9=It's Me
TTITLE10=Walkin' In And Out Of Your Arms
TTITLE11=Nowhere To Stand
EXTD=YEAR: 1989
EXTT0=
EXTT1=
EXTT2=
EXTT3=
EXTT4=
EXTT5=
EXTT6=
EXTT7=
EXTT8=
EXTT9=
EXTT10=
EXTT11=
PLAYORDER=
